<?xml version="1.0" encoding="UTF-8"?>
<svg width="616" height="550" version="1.1" viewBox="0 0 162.98 145.52" xmlns="http://www.w3.org/2000/svg" xmlns:cc="http://creativecommons.org/ns#" xmlns:dc="http://purl.org/dc/elements/1.1/" xmlns:rdf="http://www.w3.org/1999/02/22-rdf-syntax-ns#">
<metadata>
<rdf:RDF>
<cc:Work rdf:about="">
<dc:format>image/svg+xml</dc:format>
<dc:type rdf:resource="http://purl.org/dc/dcmitype/StillImage"/>
<dc:title/>
</cc:Work>
</rdf:RDF>
</metadata>
<g>
<g transform="matrix(.99907 0 0 .99893 -3.1958 -3.0479)">
<path transform="scale(.26458)" d="m48.926 59.711v422.44c86.832-2.3251 175.27 12.747 266.06 52.051 2.8407 0.76116 7.9023 0.76879 10.771 0 90.797-39.303 179.23-54.376 266.07-52.051v-422.44h-24.99v391.41c-90.473 5.7211-168.67 34.622-241.35 73.957-2.4135 1.3934-7.7377 1.4324-10.219 0-72.678-39.335-150.88-68.238-241.35-73.959v-391.4z" fill="#e0a969"/>
<path transform="scale(.26458)" d="m36.299 104.53-24.209 2.6035v428.15l7.3047 7.3047c107-14.166 203.97-9.9318 287.18 19.525h27.604c83.209-29.457 180.18-33.691 287.18-19.525l7.3027-7.3047v-428.15l-24.209-2.6035v391.89c-121.67-6.9854-204.54 21.31-283.25 53.387l-1.6621-2e-3c-78.706-32.077-161.57-60.37-283.25-53.385z" fill="#e0a969"/>
<g fill="#fff">
<path d="m83.267 135.28v-113.14c-22.154-12.074-42.272-18.041-60.752-19.094v113.45c22.702 1.6634 42.222 9.2939 60.752 18.78z"/>
<path d="m86.266 135.28v-113.14c22.154-12.074 42.272-18.041 60.752-19.094v113.45c-22.702 1.6634-42.222 9.2939-60.752 18.78z"/>
</g>
</g>
</g>
</svg>
